<svg width="41" height="23" viewBox="0 0 41 23" fill="none" xmlns="http://www.w3.org/2000/svg">
<path d="M25.1013 11.584C24.2508 13.4538 22.4222 15.0598 19.9458 16.1118C17.4694 17.1637 14.5086 17.5924 11.5982 17.3202C8.68791 17.048 6.02001 16.093 4.07657 14.6277C2.13312 13.1623 1.04231 11.2833 1.00121 9.33012C0.960101 7.37693 1.97142 5.47838 3.85244 3.97749C5.73346 2.4766 8.36013 1.47234 11.2579 1.14617C14.1556 0.820001 17.1333 1.19343 19.653 2.19898C22.1727 3.20453 24.0682 4.77589 24.997 6.62915" stroke="#CF3212"/>
<path d="M20.5146 13.2891C25.8733 13.2891 30.7072 13.8583 34.1865 14.7686C35.9299 15.2246 37.3052 15.7585 38.2324 16.332C39.187 16.9225 39.5283 17.4645 39.5283 17.8945C39.5282 18.3245 39.1866 18.8658 38.2324 19.4561C37.3052 20.0296 35.9299 20.5644 34.1865 21.0205C30.7072 21.9307 25.8733 22.5 20.5146 22.5C15.1559 22.5 10.3211 21.9308 6.8418 21.0205C5.09865 20.5644 3.72404 20.0295 2.79688 19.4561C1.84241 18.8657 1.50011 18.3246 1.5 17.8945C1.5 17.4645 1.84227 16.9225 2.79688 16.332C3.72402 15.7586 5.09886 15.2246 6.8418 14.7686C10.3211 13.8583 15.1559 13.2891 20.5146 13.2891Z" stroke="#CF3212"/>
<path d="M11.4569 15.793C12.7291 15.793 13.7069 16.7557 13.7069 17.8789C13.7067 19.002 12.729 19.9639 11.4569 19.9639C10.1849 19.9638 9.20712 19.0019 9.20691 17.8789C9.20691 16.7557 10.1848 15.793 11.4569 15.793Z" stroke="#CF3212"/>
<path d="M13.7794 19.3828C14.1504 19.383 14.3984 19.6588 14.3986 19.9365C14.3986 20.2143 14.1505 20.4911 13.7794 20.4912C13.4081 20.4912 13.1593 20.2144 13.1593 19.9365C13.1595 19.6588 13.4083 19.3828 13.7794 19.3828Z" stroke="#CF3212"/>
<path d="M35.5659 16.2891C36.2552 16.2891 36.7622 16.8085 36.7622 17.3867C36.7621 17.9649 36.2551 18.4843 35.5659 18.4844C34.8767 18.4844 34.3697 17.9649 34.3696 17.3867C34.3696 16.8084 34.8766 16.2891 35.5659 16.2891Z" stroke="#CF3212"/>
<path d="M30.1156 16.3203C31.5918 16.3203 32.9095 16.494 33.8422 16.7637C34.3117 16.8994 34.6556 17.0514 34.8705 17.1982C35.0279 17.3058 35.0682 17.3769 35.0785 17.4004C35.0694 17.4222 35.0314 17.4935 34.8705 17.6035C34.6556 17.7504 34.3119 17.9032 33.8422 18.0391C32.9095 18.3087 31.5918 18.4824 30.1156 18.4824C28.6392 18.4824 27.3208 18.3088 26.3881 18.0391C25.9183 17.9032 25.5747 17.7504 25.3597 17.6035C25.1979 17.4929 25.1596 17.4218 25.1508 17.4004C25.1608 17.3773 25.2015 17.3064 25.3597 17.1982C25.5747 17.0514 25.9185 16.8995 26.3881 16.7637C27.3208 16.4939 28.6392 16.3203 30.1156 16.3203Z" stroke="#CF3212"/>
<path d="M13.3179 1.03125L40.0287 1.03125" stroke="#CF3212"/>
<path d="M30.1151 1L30.1151 17.0569" stroke="#CF3212"/>
</svg>
